<?xml version="1.0" encoding="UTF-8"?>
<svg xmlns="http://www.w3.org/2000/svg" viewBox="0 0 512 512">
  <defs>
    <style>
      .cls-1 {
        fill: #a8dadc;
      }
    </style>
  </defs>
  <g id="_图层_1" data-name="图层 1">
    <rect id="BG" class="cls-1" width="512" height="512"/>
    <circle id="BG-circle" class="cls-1" cx="255.5" cy="255.5" r="170.5"/>
  </g>
  <g id="_图层_2" data-name="图层 2">
    <path d="m226,346h55c2.76,0,5,2.24,5,5v41c0,7.73-6.27,14-14,14h-32c-7.73,0-14-6.27-14-14v-46h0Z"/>
    <path d="m240,106h32c7.73,0,14,6.27,14,14v46h-55c-2.76,0-5-2.24-5-5v-41c0-7.73,6.27-14,14-14Z"/>
    <path d="m332,286h-32c-7.73,0-14,6.27-14,14v41c0,2.76,2.24,5,5,5h41c7.73,0,14-6.27,14-14v-32c0-7.73-6.27-14-14-14Zm-3,25.61v11.39c0,3.31-2.69,6-6,6h-15c-3.31,0-6-2.69-6-6v-15c0-3.31,2.69-6,6-6h15c3.31,0,6,2.69,6,6v3.61Z"/>
    <path d="m331,165h-46v46c0,7.73,6.27,14,14,14h32c7.73,0,14-6.27,14-14v-32c0-7.73-6.27-14-14-14Zm-3,25.61v11.39c0,3.31-2.69,6-6,6h-15c-3.31,0-6-2.69-6-6v-15c0-3.31,2.69-6,6-6h15c3.31,0,6,2.69,6,6v3.61Z"/>
    <path d="m221,166h-41c-7.73,0-14,6.27-14,14v152c0,7.73,6.27,14,14,14h46v-175c0-2.76-2.24-5-5-5Zm-12,157c0,3.31-2.69,6-6,6h-15c-3.31,0-6-2.69-6-6v-15c0-3.31,2.69-6,6-6h15c3.31,0,6,2.69,6,6v15Zm1-120c0,3.31-2.69,6-6,6h-15c-3.31,0-6-2.69-6-6v-15c0-3.31,2.69-6,6-6h15c3.31,0,6,2.69,6,6v15Z"/>
    <rect x="360" y="182" width="25" height="25" rx="6" ry="6"/>
    <rect x="127" y="303" width="25" height="25" rx="6" ry="6"/>
    <rect x="127" y="183" width="25" height="25" rx="6" ry="6"/>
    <rect x="360" y="303" width="25" height="25" rx="6" ry="6"/>
    <rect x="297" y="119" width="34" height="34" rx="8" ry="8"/>
    <rect x="297" y="359" width="34" height="34" rx="8" ry="8"/>
    <rect x="179" y="359" width="34" height="34" rx="8" ry="8"/>
    <rect x="179" y="119" width="34" height="34" rx="8" ry="8"/>
  </g>
</svg>